<svg width="326" height="81" viewBox="0 0 326 81" fill="none" xmlns="http://www.w3.org/2000/svg">
<g clip-path="url(#clip0)">
<path d="M101.468 72.2323V30.4353C101.468 27.0065 99.0037 24.5424 95.6818 24.5424C92.4669 24.5424 89.8935 27.0065 89.8935 30.4353V72.2323C89.8935 75.4495 92.4669 78.0206 95.6818 78.0206C99.0037 78.0206 101.468 75.4495 101.468 72.2323Z" fill="#233674"/>
<path d="M95.6818 3C92.4669 3 89.8935 5.57104 89.8935 8.78834V11.0386C89.8935 14.2536 92.4669 16.9315 95.6818 16.9315C99.0037 16.9315 101.47 14.2536 101.47 11.0386V8.78834C101.47 5.57104 99.0037 3 95.6818 3Z" fill="#233674"/>
<path d="M133.58 24.4355C129.401 24.4355 125.435 25.721 122.22 27.7574C121.255 25.721 119.219 24.4355 116.969 24.4355C113.754 24.4355 111.287 27.0065 111.287 30.1145V46.7264V72.3415C111.287 75.4472 113.754 78.0206 116.969 78.0206C119.754 78.0206 122.113 75.9842 122.648 73.4132C122.864 72.9831 122.864 72.6623 122.864 72.3415V46.7264C122.864 40.7242 127.578 35.9029 133.58 35.9029C139.69 35.9029 144.725 40.7242 144.725 46.7264V72.3415C144.725 75.4472 147.405 78.0206 150.406 78.0206C153.514 78.0206 155.978 75.4472 155.978 72.3415V46.7264C155.978 34.615 146.013 24.4355 133.58 24.4355Z" fill="#233674"/>
<path d="M171.586 3C168.371 3 165.798 5.57104 165.798 8.78834V11.0386C165.798 14.2536 168.371 16.9315 171.586 16.9315C174.908 16.9315 177.372 14.2536 177.372 11.0386V8.78834C177.372 5.57104 174.908 3 171.586 3Z" fill="#233674"/>
<path d="M177.372 72.2323V30.4353C177.372 27.0065 174.908 24.5424 171.586 24.5424C168.371 24.5424 165.798 27.0065 165.798 30.4353V72.2323C165.798 75.4495 168.371 78.0206 171.586 78.0206C174.908 78.0206 177.372 75.4495 177.372 72.2323Z" fill="#233674"/>
<path d="M213.52 35.9029C217.486 35.9029 220.915 37.2953 223.702 39.3317C226.166 41.2612 229.597 40.8311 231.738 38.26C233.454 35.9029 233.026 32.2578 230.559 30.3284C225.952 26.7926 219.95 24.4355 213.52 24.4355C198.731 24.5424 186.298 36.4375 186.298 51.3338C186.298 66.0162 198.731 78.0206 213.52 78.0206C219.95 78.0206 225.952 75.6634 230.559 72.3415C233.026 70.1959 233.454 66.767 231.738 64.4099C229.597 61.8365 226.059 61.4088 223.702 63.2313C220.915 65.2676 217.379 66.6601 213.52 66.6601C204.84 66.6601 197.659 59.5862 197.659 51.3338C197.659 43.0837 204.84 35.9029 213.52 35.9029Z" fill="#233674"/>
<path d="M247.487 3C244.275 3 241.701 5.57104 241.701 8.78834V11.0386C241.701 14.2536 244.275 16.9315 247.487 16.9315C250.812 16.9315 253.276 14.2536 253.276 11.0386V8.78834C253.276 5.57104 250.812 3 247.487 3Z" fill="#233674"/>
<path d="M253.276 72.2323V30.4353C253.276 27.0065 250.812 24.5424 247.487 24.5424C244.275 24.5424 241.701 27.0065 241.701 30.4353V72.2323C241.701 75.4495 244.275 78.0206 247.487 78.0206C250.812 78.0206 253.276 75.4495 253.276 72.2323Z" fill="#233674"/>
<path d="M271.134 45.9755C271.992 41.582 276.492 35.0451 285.602 34.615C294.924 35.3659 300.392 41.6889 301.463 45.9755H271.134ZM285.602 24.4355C270.92 24.4355 259.557 36.6514 259.45 51.2269C259.557 65.8023 270.92 77.9137 285.602 78.0206C293.211 78.0206 299.534 75.7703 304.785 70.9467C307.252 68.6965 306.18 65.4815 304.785 63.9798C303.393 62.2665 298.997 61.9457 296.747 64.3029C294.069 66.3393 289.459 67.304 285.602 66.9809C281.85 66.6601 277.564 64.7307 275.313 62.1596C273.384 60.3371 272.203 57.5499 271.668 55.0858H305.75C308.751 55.0858 311.001 53.3702 311.322 50.7991C311.429 50.5853 311.429 50.0483 311.429 49.8344V49.2974C310.571 34.8312 299.534 24.4355 285.602 24.4355Z" fill="#233674"/>
<path d="M320.639 64.1379C317.426 64.1379 314.853 66.7113 314.853 69.9262V72.1765C314.853 75.3915 317.426 78.0718 320.639 78.0718C323.963 78.0718 326.427 75.3915 326.427 72.1765V69.9262C326.427 66.7113 323.963 64.1379 320.639 64.1379Z" fill="#233674"/>
<path d="M8.31986 59.0842C6.89021 59.0842 5.46289 58.7099 4.15877 57.9568C1.55518 56.4527 0 53.7585 0 50.7527V24.7261C0 22.9408 1.44825 21.4949 3.23357 21.4949C5.01656 21.4949 6.46248 22.9408 6.46248 24.7261V50.7527C6.46248 51.7198 7.11338 52.1986 7.39233 52.359C7.67129 52.5194 8.41052 52.8426 9.24739 52.359L41.9992 33.4505C42.836 32.967 42.9267 32.165 42.9267 31.8418C42.9267 31.521 42.836 30.719 41.9992 30.2355L4.71436 9.06972C3.1615 8.18868 2.61754 6.21507 3.49857 4.66454C4.37961 3.11168 6.35322 2.56772 7.90608 3.44876L45.2118 24.6262C47.8363 26.1418 49.3915 28.8361 49.3915 31.8418C49.3915 34.8499 47.8363 37.5442 45.2304 39.0482L12.4786 57.9568C11.1768 58.7099 9.74719 59.0842 8.31986 59.0842Z" fill="#233674"/>
<path d="M19.8548 78.4902C18.4274 78.4902 16.9978 78.1159 15.696 77.3627C13.0924 75.8587 11.5372 73.1667 11.5372 70.1587V44.1321C11.5372 42.3468 12.9832 40.9008 14.7685 40.9008C16.5538 40.9008 17.9997 42.3468 17.9997 44.1321V70.1587C17.9997 71.1257 18.6483 71.6046 18.9272 71.765C19.2062 71.9277 19.9454 72.2485 20.7846 71.765L53.5364 52.8564C54.3733 52.3729 54.4639 51.5709 54.4639 51.2501C54.4639 50.927 54.3733 50.125 53.5364 49.6415L16.2516 28.4757C14.6987 27.5946 14.1548 25.621 15.0358 24.0705C15.9168 22.5176 17.8881 21.9737 19.441 22.8547L56.7467 44.0321C59.3712 45.5478 60.9264 48.242 60.9264 51.2501C60.9264 54.2582 59.3712 56.9501 56.7676 58.4541L24.0159 77.3627C22.7141 78.1159 21.2844 78.4902 19.8548 78.4902Z" fill="#E8532C"/>
</g>
<defs>
<clipPath id="clip0">
<rect width="326" height="81" fill="white"/>
</clipPath>
</defs>
</svg>
